<svg width="22" height="22" viewBox="0 0 22 22" fill="none" xmlns="http://www.w3.org/2000/svg">
<path fill-rule="evenodd" clip-rule="evenodd" d="M15.3609 0H15.3627L19.2518 3.88909L19.2518 3.88905V5.2641L19.2499 3.88904L17.1942 3.8891C16.1817 3.8891 15.3609 3.06829 15.3609 2.05577V0ZM13.9859 0H4.7518C3.64723 0 2.7518 0.89543 2.7518 2V20C2.7518 21.1046 3.64723 22 4.7518 22H17.2518C18.3564 22 19.2518 21.1046 19.2518 20V5.2641L17.1942 5.2641C15.4223 5.2641 13.9859 3.82768 13.9859 2.05577V0ZM7.38192 13.4037H5.63612V17.5746H6.60137V16.4186H7.38192C7.61231 16.4186 7.82085 16.3789 8.00754 16.2995C8.19424 16.2161 8.35312 16.1068 8.48421 15.9718C8.61926 15.8327 8.72254 15.6719 8.79404 15.4891C8.86554 15.3064 8.90129 15.1138 8.90129 14.9112C8.90129 14.7086 8.86554 14.5159 8.79404 14.3332C8.72254 14.1505 8.61926 13.9916 8.48421 13.8566C8.35312 13.7175 8.19424 13.6083 8.00754 13.5288C7.82085 13.4454 7.61231 13.4037 7.38192 13.4037ZM7.53683 15.5726C7.45342 15.6123 7.36206 15.6321 7.26275 15.6321H6.60137V14.1902H7.26275C7.36206 14.1902 7.45342 14.2101 7.53683 14.2498C7.62025 14.2895 7.68976 14.3432 7.74537 14.4107C7.80496 14.4742 7.85064 14.5497 7.88242 14.6371C7.91419 14.7245 7.93008 14.8158 7.93008 14.9112C7.93008 15.0065 7.91419 15.0979 7.88242 15.1853C7.85064 15.2727 7.80496 15.3501 7.74537 15.4176C7.68976 15.4812 7.62025 15.5328 7.53683 15.5726ZM11.9588 13.5825C11.6927 13.4633 11.3868 13.4037 11.0412 13.4037H9.50994V17.5746H11.0412C11.3868 17.5746 11.6947 17.517 11.9648 17.4018C12.2349 17.2826 12.4613 17.1257 12.644 16.9311C12.8307 16.7364 12.9717 16.514 13.0671 16.2637C13.1624 16.0135 13.2101 15.7553 13.2101 15.4891C13.2101 15.223 13.1604 14.9648 13.0611 14.7146C12.9658 14.4643 12.8248 14.2419 12.6381 14.0472C12.4553 13.8526 12.2289 13.6977 11.9588 13.5825ZM10.4752 16.7404V14.2379H10.9936C11.1882 14.2379 11.361 14.2736 11.5119 14.3451C11.6669 14.4127 11.796 14.506 11.8992 14.6252C12.0065 14.7404 12.0879 14.8734 12.1435 15.0244C12.1991 15.1753 12.2269 15.3302 12.2269 15.4891C12.2269 15.652 12.1991 15.8089 12.1435 15.9598C12.0879 16.1068 12.0065 16.2399 11.8992 16.3591C11.796 16.4742 11.6669 16.5676 11.5119 16.6391C11.361 16.7066 11.1882 16.7404 10.9936 16.7404H10.4752ZM14.8552 14.2141V15.3402H16.4342V16.1326H14.8552V17.5746H13.89V13.4037H16.4342V14.2141H14.8552Z" fill="#009D85"/>
</svg>
